<svg width="1826" height="2070" viewBox="0 0 1826 2070" fill="none" xmlns="http://www.w3.org/2000/svg">
<path d="M777.553 87.359C805.712 86.0277 833.906 88.8048 861.441 95.622C872.402 98.4645 884.366 102.45 894.872 106.143C900.756 108.211 919.087 120.535 923.532 118.999C935.873 114.735 950.817 105.869 964.084 101.324C1049.5 72.0582 1145.9 91.5532 1224.1 136.979C1265.86 161.235 1306.05 193.64 1338.87 231.109C1341.68 234.313 1349.04 240.947 1350.73 243.127C1370.54 268.748 1390.72 297.38 1406.77 326.175C1417.32 345.111 1426.73 368.408 1435.16 388.543C1436.68 392.191 1439.34 396.206 1440.48 399.122C1442.15 403.42 1443.27 409.722 1444.86 414.442C1445.85 417.362 1447.5 419.655 1447.78 420.65C1448.92 424.552 1449.42 428.931 1450.75 433.086C1456.89 452.288 1462.59 476.285 1465.66 496.425C1476.32 566.348 1475.46 626.165 1504.04 691.788C1521.28 731.377 1527.47 734.959 1553.72 766.968C1582.27 801.778 1612.6 845.878 1625.52 891.417C1644.31 957.617 1630.85 1022.5 1597.16 1078.99C1582.97 1102.78 1568.44 1121.89 1557 1147.96C1517.47 1238.14 1587.98 1275.19 1631.18 1334.6C1646.69 1355.93 1657.84 1381.82 1665.2 1408.24C1673.07 1436.55 1673.44 1469.42 1666.89 1498.17C1665.52 1504.21 1664.31 1506.22 1661.9 1511.57C1661.69 1512.03 1661.07 1518.39 1660.09 1520.96C1657.53 1527.63 1654.49 1533.77 1651.52 1540.15C1639.51 1566.05 1619.87 1588.54 1599.54 1606.45C1572.43 1630.32 1541.77 1647.39 1525.38 1683.97C1519.06 1698.08 1516.22 1717.67 1521.07 1732.64C1523.7 1740.77 1529.72 1753.5 1536.78 1757.6C1550.62 1765.64 1551.25 1767.63 1565.68 1767.09C1610.96 1765.41 1601.93 1709.66 1606.25 1704.52C1609.96 1706.31 1616.9 1720.54 1618.67 1724.91C1643.71 1786.9 1599.23 1852.73 1550.45 1877.82C1516.87 1895.09 1484.85 1901.16 1448.27 1897.62C1428.73 1895.74 1409.14 1889.59 1390.98 1881.55C1386.34 1879.32 1375.6 1873.56 1371.71 1870.74C1356.29 1859.53 1342.77 1844.87 1330.5 1829.54C1296.65 1923.15 1386.91 1980.56 1456.24 1952.1C1458.45 1951.2 1477.13 1945.15 1477.75 1945.26C1475.44 1951.84 1464.05 1963.63 1459.33 1968.27C1424.81 2002.14 1369.73 2010.83 1325.27 2005.05C1264.36 1997.13 1184.39 1961.25 1145.64 1905.98C1126.09 1878.08 1111.71 1840.07 1111.57 1804.22C1111.63 1785.83 1111.31 1760.75 1116.64 1743.37C1121.12 1728.73 1130.14 1704.16 1136.88 1690.61C1153.76 1656.77 1174.59 1622.4 1178.21 1582.75C1181.64 1545.15 1166.26 1523.41 1145.82 1496.95C1135.47 1483.57 1125.01 1470.31 1114.43 1457.16C1109.68 1451.21 1104.48 1445.56 1100.07 1439.28C1052.89 1372.14 1024.33 1302.05 1033.46 1214.06C1034.06 1200.27 1037.81 1183.79 1040.73 1170.3C984.752 1188.45 926.011 1192.92 868.394 1183.4C854.714 1181.06 841.659 1178.33 828.262 1174.39C823.749 1173.07 818.248 1171.43 813.647 1171.02C813.99 1178.2 816.06 1183.02 817.037 1189.71C818.411 1199.11 820.101 1210.14 820.723 1219.58C825.378 1290.05 811.532 1350.8 768.016 1403.05C748.1 1426.97 730.403 1443.32 715.881 1472.97C677.519 1551.31 722.89 1619.99 741.979 1695.2C757.157 1753.6 756.908 1814.2 730.411 1868.7C710.778 1909.08 679.533 1937.38 645.171 1961.12C640.37 1963.97 634.129 1966.48 629.375 1969.17C556.688 2010.26 450.675 2030.62 380.076 1974.8C369.167 1966.18 362.906 1957.65 354.407 1946.05C359.212 1944.73 377.546 1954.44 382.874 1955.72C403.643 1960.7 427.552 1962.7 447.749 1956.78C496.993 1942.35 526.543 1886.26 505.32 1832.36C505.038 1832.14 504.757 1831.92 504.474 1831.7C496.211 1838.79 490.21 1849.55 481.711 1856.44C418.073 1912.08 320.835 1914.67 256.395 1858.63C215.861 1823.38 192.12 1760.5 223.644 1707.65C224.748 1705.8 226.127 1704.89 228.006 1704.76C230.25 1711.51 228.665 1725.07 231.275 1734.4C236.206 1757.54 261.303 1773.03 281.342 1766.18C294.526 1761.68 308.015 1751.13 312.348 1735.29C331.419 1665.57 258.673 1630.2 221.413 1592.94C178.821 1550.36 154.68 1491.3 164.417 1426.5C171.958 1372.02 203.433 1330.39 237.744 1294.06C262.933 1267.39 291.183 1233.68 288.624 1191.69C286.082 1150 258.987 1116.79 239.342 1083.59C215.411 1043.15 198.644 996.717 200.031 947.308C202.173 861.843 252.76 799.669 302.223 741.871C310.748 731.91 318.509 717.714 325.036 705.84C366.568 630.281 358.109 540.672 378.789 458.099C421.748 281.457 551.311 138.871 709.255 97.8962C732.756 91.7992 753.719 89.4193 777.553 87.359ZM612.92 723.024C597.375 752.921 582.596 774.114 561.088 798.804C558.349 801.948 565.072 831.068 566.362 836.78C590.462 939.878 653.742 1028.05 734.631 1081.32C819.733 1137.36 920.083 1157.67 1015.96 1128.84C1018.67 1128.03 1019.68 1127.74 1022.22 1126.35C1031.37 1125.62 1047.72 1117.37 1056.87 1113.28C1117.98 1085.97 1168.17 1044.46 1211.23 988.225C1244.82 943.517 1268.74 890.545 1281.12 833.518C1283.04 824.36 1285.38 814.205 1285.44 804.755C1285.47 801.506 1283.39 800.005 1281.91 797.469C1266.38 778.022 1252.92 762.372 1240.52 740.042C1232.11 873.477 1111.86 956.741 1016.54 857.099C1015.24 855.739 1005.43 843.734 1004.71 842.642C979.336 804.548 967.427 757.083 971.326 709.554C981.171 592.286 1078.34 516.222 1170.08 574.414C1175.7 577.979 1187.81 591.962 1192.39 592.074C1192.64 591.179 1183.64 533.772 1183.27 526.441C1182.99 521.013 1176.68 489.1 1173.71 483.669C1164.67 467.138 1135.4 454.135 1119.08 449.6C1058.56 432.39 981.276 438.674 923.947 467.112C881.609 450.1 841.792 437.565 796.009 439.149C759.594 441.056 724.943 443.994 691.701 463.388C671.3 475.29 667.068 484.168 661.784 509.063C656.776 532.655 655.435 556.395 652.602 580.389C651.766 587.15 651.536 598.667 649.253 604.425L649.913 605.638C651.617 604.821 669.049 586.841 672.817 583.64C744.179 523.009 836.767 561.589 869.947 651.986C887.745 699.966 887.965 753.998 870.58 802.168C855.893 842.053 827.662 875.807 792.1 892.013C763.118 905.162 730.723 904.77 701.995 890.924C644.714 862.735 611.325 792.274 612.92 723.024ZM590.854 278.136L593.377 278.902C593.469 280.253 593.574 281.603 593.69 282.952C547.761 328.33 504.322 404.505 489.401 472.59C476.187 532.881 463.68 594.861 432.701 647.967C420.488 668.904 407.321 692.789 392.025 710.475C328.358 784.097 229.375 863.166 247.249 980.792C249.519 995.636 268.366 1051.62 278.562 1057.95C275.952 1047.39 273.096 1038.28 271.132 1027.41C261.032 971.535 275.713 915.067 304.003 869.052C298.486 890.56 291.967 908.014 289.602 931.025C288.631 940.476 289.239 946.7 288.754 955.634C285.098 1022.9 319.803 1081.08 357.747 1128.87C364.537 1137.42 369.931 1147.34 376.309 1155.97L377.447 1156.2C376.749 1147.17 356.463 1107.73 351.632 1098.02C333.789 1062.14 321.708 1031.6 319.235 990.156C316.066 937.053 329.808 891.1 360.167 850.485C374.028 831.64 395.822 810.224 415.405 799.38C375.995 844.244 348.647 889.04 347.782 955.279C347.651 965.269 350.816 996.88 354.251 1006.36L355.375 1006.31C360.771 993.288 359.33 970.534 365.742 957.402C368.996 950.736 370.397 941.397 373.52 934.672C391.278 896.42 416.325 864.217 446.648 838.128C451.383 834.054 455.883 829.475 460.94 825.84C517.286 788.687 559.876 743.152 586.017 674.462C623.051 577.151 599.939 468.602 669.501 386.13C688.753 362.937 713.06 345.909 739.97 336.763C800.927 316.648 867.061 344.696 905.361 400.545C906.922 402.815 911.403 409.588 913.873 409.016C913.617 403.926 911.412 399.241 909.966 394.499C888.706 325.031 821.083 296.128 760.638 300.682C756.535 300.991 751.672 300.898 747.532 300.175L747.513 299.736C748.971 298.884 749.791 297.966 750.829 297.282C790.126 271.37 841.244 274.044 880.8 297.6C885.019 299.89 892.191 305.607 896.398 306.066L896.945 304.722C894.228 300.338 888.318 294.276 884.763 290.123C863.998 267.099 832.416 252.901 803.897 248.79C761.958 242.744 716.848 256.315 678.079 273.988L678.558 273.431C683.424 267.677 688.186 263.172 693.689 258.239C741.797 215.11 807.312 204.285 864.893 227.263C876.252 231.796 886.668 239.177 897.616 244.72C898.895 245.369 898.268 245.212 899.918 244.448L899.468 242.235C890.726 235.296 882.928 222.482 873.048 214.982C818.597 173.641 758.983 177.799 697.144 190.206C703.791 184.658 718.781 176.822 726.572 173.371C770.724 153.816 815.224 148.31 861.269 161.798C868.594 163.931 875.828 166.441 882.955 169.32C888.292 171.493 899.989 178.396 903.57 178.619L903.508 177.476C888.459 158.494 853.309 139.513 831.168 136.117C641.375 107.003 458.263 280.917 418.412 486.632C409.935 530.394 406.806 575.788 399.419 620.214C411.519 602.554 430.472 552.606 437.748 530.361C440.533 521.846 441.796 512.551 444.23 503.876C472.623 402.688 510.646 335.095 590.854 278.136ZM937.417 182.165C999.431 150.231 1047.13 144.814 1113.22 171.293C1124.29 175.725 1137.05 182.656 1147.08 189.67C1137.68 188.226 1128.33 186.147 1119.01 184.689C1061.74 175.726 997.058 185.177 953.322 231.707C949.979 235.26 947.262 238.253 944.589 242.557C1025.94 191.842 1115.99 199.565 1183.98 274.84C1185.66 276.703 1187.12 278.796 1188.9 280.756L1188.8 282C1187.93 281.897 1157.33 266.074 1150.62 263.434C1099.2 243.219 1041.39 239.391 991.58 267.66C983.967 271.978 975.402 276.856 968.821 282.908C962.875 288.371 957.741 294.986 951.743 300.294C949.679 302.116 948.162 304.106 946.653 306.504L946.918 308.006C952.237 306.367 967.18 295.678 975.507 291.999C1012.22 275.792 1056.11 274.622 1091.44 295.906C1094.01 297.456 1096.17 299.274 1097.81 301.954L1096.18 302.876C1089.11 299.998 1081.91 300.935 1074.59 300.808C1015.46 299.784 953.384 330.257 933.527 397.93C932.557 401.26 931.992 404.09 932.574 407.585L933.651 408.187C942.701 396.229 952.652 382.236 963.325 372.269C1022.35 317.118 1106.14 316.46 1163.49 374.507C1229.82 441.643 1223.83 536.119 1243.32 624.879C1256.06 682.91 1285.87 739.253 1325.19 778.635C1349.97 803.793 1371.08 814.324 1400.3 831.445C1415.09 840.19 1429.77 849.184 1444.31 858.423C1459.08 867.833 1466.56 876.247 1478.78 885.033C1512.06 921.28 1532.36 955.268 1534.61 1010.23C1534.82 1015.42 1533.1 1028.24 1533.72 1030.91L1534.8 1030.68C1536.78 1026.31 1536.92 1023.29 1538.26 1018.85C1548.46 985.264 1546.14 947.147 1534.31 914.528C1533.43 912.095 1532.13 909.94 1532.01 907.364C1537.44 908.352 1541.02 914.803 1544.18 919.825C1563.8 950.981 1572.64 986.799 1566.41 1024.8C1565.5 1030.32 1562.86 1038.1 1563.2 1043.04C1567.7 1042.07 1574.13 1022.1 1576.08 1017.51C1588.57 988.74 1591.88 952.504 1586.27 921.213C1576.39 866.084 1539.94 819.139 1506.29 779.704C1473.17 740.893 1435.57 706.92 1410.6 659.767C1404.63 648.477 1399.03 636.452 1392.35 625.816C1390.21 622.326 1378.11 589.786 1376.03 584.148C1363.39 549.877 1357.11 512.528 1348.77 476.836C1346.85 468.598 1343.03 458.818 1340.42 450.444C1316.78 374.8 1279.96 323.627 1226.81 272.353C1233.53 275.172 1239.92 279.308 1246.13 283.353C1277 303.436 1302.65 328.996 1325.39 359.745C1348.73 391.916 1367.37 428.116 1380.61 466.968C1389.2 492.306 1396.15 519.125 1404.91 544.767C1414.81 573.713 1424.25 595.225 1437.27 622.212C1436 608.695 1433.33 594.832 1431.66 581.244C1427.26 545.365 1423.93 508.253 1415.75 473.182C1372.62 288.362 1216.31 129.185 1042.94 132.873C1003.01 134.15 965.478 149.091 937.417 182.165ZM1218.43 1533.59C1219.72 1540.01 1221.26 1550.67 1223.46 1555.98L1224.4 1556.05C1227.12 1544.17 1226.8 1520.64 1223.21 1508.44C1224.11 1479.63 1171.94 1416.02 1158.91 1385.23C1141.7 1344.52 1135.2 1304.21 1137.91 1259.26C1138.18 1254.79 1138.39 1250.17 1139.07 1245.76C1139.98 1239.94 1142.51 1234.27 1142 1228.33L1141.24 1227.83C1137.83 1232.25 1136.45 1238.21 1134.36 1243.49C1107.71 1310.88 1116.6 1385.95 1158.86 1442.58C1165.73 1451.79 1175.05 1459.58 1181.95 1468.66C1197.99 1489.77 1210.7 1506.64 1218.43 1533.59ZM705.401 1785.32C706.001 1775.14 707.409 1765.27 707.112 1755.23C705.114 1687.83 666.535 1630.14 659.582 1564.39C654.303 1514.47 664.025 1462.62 691.74 1422.5C695.412 1418.31 698.695 1413.72 700.461 1408.15L698.837 1410.98L696.534 1410.02C693.725 1413.11 692.26 1414.78 690.014 1418.37C670.59 1438.37 653.574 1461.52 642.252 1488.53C639.613 1494.83 638.427 1503.15 635.509 1510.38C633.826 1514.55 632.423 1532.21 631.22 1538.23C629.266 1548.01 631.433 1565.27 633.06 1575C633.909 1579.07 633.049 1585.33 634.755 1590.84C636.566 1596.7 643.639 1615.16 644.25 1620.42L643.087 1620.65C640.489 1617.96 641.146 1617.61 639.357 1615.18C623.673 1593.84 615.583 1577.05 610.654 1548.94L610.096 1545.78C609.356 1537.48 610.1 1512.57 608.912 1508.03C606.689 1510.91 603.243 1523.14 602.808 1527.18C585.569 1599.07 639.261 1651.14 671.596 1704.19C688.864 1732.52 695.269 1754.11 705.401 1785.32ZM1016.81 404.298L1020.71 401.687C1045.98 384.831 1069.8 376.656 1099.06 377.743C1085.68 369.579 1068.77 368.068 1053.86 369.479C1031.17 374.474 1009.08 388.005 996.405 411.854C994.87 414.741 991.924 420.104 991.836 423.219C994.438 422.436 1012.37 407.492 1016.81 404.298ZM1597.55 1543.01C1608.49 1527.2 1620.99 1503.67 1623.76 1483.5C1630.85 1444.49 1622.56 1408.22 1603.26 1375.27C1590.98 1354.27 1575.17 1337.55 1559.35 1320.13C1516.07 1272.45 1492.01 1233.27 1504.4 1162.19C1504.81 1159.86 1505.27 1157.56 1505.56 1155.21C1485.82 1191.2 1468.31 1219.48 1477.72 1264.21C1482.24 1285.68 1493.42 1307.69 1507.43 1322.99C1512.92 1328.98 1521.16 1334.88 1524.15 1342.99L1522.69 1344.61L1523.96 1342.4L1522.12 1344.23L1521.09 1343.37C1511.92 1335.75 1500.12 1331.74 1490.17 1325.19C1481.43 1319.43 1473.56 1311.01 1466.82 1302.51C1449.7 1280.93 1441.88 1263.03 1437.71 1234.35C1435.7 1220.57 1435.02 1206.05 1436.9 1192.19C1437.7 1186.38 1439.63 1181.05 1439.66 1175.16C1439.66 1171.47 1440.3 1170.12 1441.86 1167.01C1447.43 1155.93 1448.61 1141.87 1454.49 1130.51C1456 1127.6 1458.07 1125.19 1459.67 1122.37C1463.56 1115.52 1466.82 1108.21 1470.69 1101.34C1492.47 1062.62 1506.49 1034.09 1493.82 986.857C1482.17 943.409 1448.94 912.44 1414.75 891.992C1411.3 889.928 1407.51 887.17 1403.64 886.396C1404.54 891.487 1411.04 896.894 1413.92 901.023C1436.47 933.229 1453.05 969.689 1454.05 1011.63C1454.48 1034.93 1450.48 1058.06 1442.34 1079.45C1433.1 1104.17 1419.45 1126.86 1408.44 1150.58C1388.07 1194.45 1383.08 1239.41 1405.12 1283.92C1430.15 1334.5 1480.09 1357.57 1513.15 1399.94C1522.5 1411.95 1532.75 1425.92 1538.76 1440.4C1542.21 1448.68 1544.5 1457.88 1548.41 1465.83C1554.35 1477.86 1557.17 1502.89 1558.34 1516.62C1558.7 1520.84 1558.33 1525.48 1558.96 1529.6C1559.16 1530.86 1559.62 1532.75 1560.55 1533.53L1561.53 1533.02C1564.32 1524.52 1569.09 1511.87 1571.07 1503.53C1577.36 1477.09 1573.34 1442.78 1563.43 1418.11C1558.69 1406.31 1551.52 1396.79 1546.61 1385.26C1548.66 1386.39 1550.69 1387.58 1552.77 1388.63C1556.97 1390.76 1560.72 1395.18 1564.11 1398.63C1579.76 1414.49 1590.81 1430.88 1598.16 1453.41C1608.34 1484.59 1604.9 1511.76 1597.55 1543.01ZM743.702 376.235C747.525 376.549 751.343 376.781 755.177 376.825C786.276 377.181 815.466 393.21 840.241 413.43C842.491 415.13 851.427 422.291 853.015 422.797C853.526 420.956 854.004 420.284 852.865 418.394C840.398 397.694 823.866 378.771 802.488 371.671C793.408 368.665 783.928 367.518 774.493 368.285C762.42 369.812 755.285 371.914 743.702 376.235ZM338.127 1832.89C333.215 1834.03 328.376 1834.83 323.917 1837.42L323.578 1838.56C329.824 1840.92 352.753 1839.05 358.637 1836.29C395.672 1825.96 423.485 1798.02 429.971 1754.65C432.869 1735.27 429.596 1708.75 417.933 1694.14C407.377 1680.93 396.077 1667.63 385.288 1654.59C382.715 1651.48 381.247 1645.41 379.089 1642.05C351.363 1598.83 349.535 1533.69 375.498 1488.78C378.956 1482.8 385.577 1467.02 391.288 1465.24C391.167 1468.09 387.051 1481.76 386.04 1487.53C381.108 1514.76 382.701 1542.99 390.653 1569.28C401.065 1604.31 417.144 1629.37 441.677 1653.34C457.237 1668.54 469.323 1679.05 488.246 1689.12C493.767 1692.06 499.335 1698.53 506.218 1701.01C512.324 1703.38 517.319 1708.86 522.549 1712.16C576.74 1746.38 613.904 1813.13 583.537 1882.01L582.28 1881.64C582.021 1867.9 581.275 1856.91 578.383 1843.49C572.003 1813.87 548.359 1780.13 525.33 1764.82C522.268 1762.63 511.004 1753.32 509.072 1753.09L508.424 1754.34C510.505 1759.87 517.564 1764.42 521.213 1770.87C542.011 1792.1 555.339 1834.59 555.86 1865.72C556.26 1889.57 549.821 1914.56 539.17 1935.06C537.071 1939.15 531.654 1946.65 530.838 1949.99C534.402 1951.38 547.79 1943.9 551.543 1941.7C582.617 1923.46 607.122 1892.65 617.94 1856.07C624.767 1832.51 625.187 1807.17 619.145 1783.34C618.561 1780.94 617.158 1773.12 615.571 1771.88C615.201 1763.93 614.336 1764.55 619.957 1760.98C636.978 1777.19 648.178 1811.97 650.612 1838.06C652.773 1861.23 647.218 1894.34 635.038 1914.73C633.674 1917.02 632.518 1919.66 631.697 1920.8C634.885 1919.73 639.687 1917.07 640.998 1913.36C643.685 1905.77 650.511 1900.44 653.936 1893.57C678.791 1843.73 669.256 1780.38 635.9 1738.97C607.655 1703.9 567.269 1685.6 533.821 1658.43C488.833 1624.05 454.804 1596.23 444.008 1531.99C435.188 1479.49 452.016 1436.62 476.814 1392.89C481.383 1384.9 517.697 1333.62 517.338 1329C517.093 1329.02 493.45 1346.48 490.541 1348.35C441.801 1379.76 398.176 1394.49 358.804 1443.85C333.623 1475.42 317.71 1514.48 319.682 1557.8C320.661 1579.31 326.597 1599.56 336.059 1618.16C353.234 1651.91 391.951 1684.17 395.984 1724.02C396.242 1726.58 396.696 1731.56 395.193 1733.63C390.857 1723.92 369.037 1695.92 360.017 1692.32L358.602 1692.56C358.33 1693.51 360.221 1712.04 360.324 1715.19C361.948 1764.81 332.484 1797.66 292.347 1810.41C318.114 1815.47 334.055 1815.52 358.689 1801.9C364.342 1798.78 372.288 1792.21 376.685 1789.79C379.957 1792.17 380.109 1792 380.678 1796.66C368.068 1814.84 358.963 1822.67 339.658 1831.98C338.464 1832.55 339.086 1832.14 338.127 1832.89ZM681.727 1204.16L681.686 1205.38C681.449 1214.11 682.119 1222.8 682.132 1231.52C682.366 1256.09 678.511 1280.49 670.767 1303.44C668.855 1309.15 667.103 1315.96 664.445 1321.26C662.467 1325.21 659.49 1328.42 657.436 1332.38C654.85 1337.35 652.865 1342.83 650.023 1347.63C645.118 1355.9 636.158 1367.96 629.796 1374.84C624.69 1380.37 618.685 1384.5 613.941 1390.52C605.902 1400.71 594.689 1409.06 585.536 1418.19C552.931 1450.72 523.5 1491.73 525.891 1543.98C527.157 1571.68 537.499 1603.28 555.813 1622.35C557.36 1623.96 559.487 1626.46 561.268 1627.55C566.617 1631.69 571.371 1635.16 577.435 1637.83C558.372 1597.11 549.449 1553.68 561.856 1508.5C575.01 1460.58 607.748 1433.42 636.664 1398.98C653.973 1378.37 669.222 1354.83 679.124 1328.61C687.137 1307.85 691.306 1285.44 691.37 1262.77C691.325 1246.06 689.723 1221.18 682.855 1206.03C682.391 1205.01 682.284 1204.93 681.727 1204.16ZM1106.26 413.845C1123.19 412.576 1133.22 414.335 1149.11 421.046C1135.24 402.42 1125.76 398.991 1104.68 400.531C1091.58 403.711 1075.33 408.808 1065.32 419.337L1065.13 420.564C1072.24 422.042 1094.66 414.107 1106.26 413.845ZM1435.59 1817.85C1422.68 1795.35 1415.04 1773.97 1420.24 1746.84C1422.81 1733.46 1429.34 1717.96 1437.14 1707.55L1438.33 1707.52C1438.65 1715.67 1435.42 1723.97 1434.78 1732.12C1432.58 1759.84 1444.03 1786.78 1461.96 1805.15C1479.3 1822.92 1505.78 1832.55 1529.03 1831.03C1545.97 1829.92 1547 1825.9 1559.11 1815.04L1559.32 1813.21C1557.65 1811.85 1558.56 1812.17 1556.8 1812.08C1533.28 1810.97 1511.97 1800.26 1495.9 1780.55C1480.44 1761.57 1472.81 1736.86 1473.96 1711.07C1475.32 1680.54 1488.8 1654.83 1498.37 1627.09C1521.16 1561.03 1524.15 1485.55 1480.06 1429.45C1441.11 1379.92 1391.82 1362.57 1363.4 1298.22C1360.72 1292.15 1357.57 1286.05 1355.55 1279.66C1351.68 1267.37 1350.98 1254.43 1347.9 1242.05C1345.29 1231.56 1346.49 1211.59 1348.7 1200.95C1351.71 1186.44 1353.12 1171.47 1358.46 1157.61C1362.94 1145.97 1367.93 1133.61 1373.35 1122.53C1395.7 1076.86 1418.54 1039.85 1404.13 985.107C1401.2 973.991 1397.7 962.455 1392.15 952.637C1385.3 940.511 1370.85 914.272 1358.75 909.107C1378.03 954.747 1380.65 1007.17 1366.02 1054.98C1356.26 1086.78 1339.08 1114.44 1323.89 1143.1C1291.93 1203.47 1283.75 1259.77 1311.45 1325.06C1316.48 1336.95 1322.44 1348.2 1328.88 1359.18C1296 1330.72 1272.77 1289.84 1267.01 1243C1263.15 1211.62 1265.92 1176.77 1275.02 1146.82C1294.52 1082.63 1335.86 1039.31 1314.95 963.74C1314.3 985.498 1311.68 1006.09 1304.83 1026.62C1298.18 1046.59 1287.96 1065.32 1278.06 1083.41C1253.21 1128.84 1233.7 1171.08 1236.41 1226.7C1238.08 1260.98 1247.48 1291.62 1263.05 1320.83C1271.8 1337.25 1282.89 1349.87 1293.02 1364.86C1294.36 1366.84 1295.64 1367.88 1297.41 1369.32L1297.05 1370.29C1272.23 1361.49 1246.05 1329.13 1234.28 1303.72C1228.1 1290.36 1223.8 1276.44 1218.28 1262.82C1219.12 1315.35 1236.71 1359.48 1269.86 1395.93C1307.44 1437.27 1355.77 1457.18 1391.92 1501.44C1395.26 1505.53 1398.95 1508.55 1401.31 1513.54C1413.89 1540.23 1422.47 1561.38 1421.49 1592.43C1421.37 1596.53 1418.42 1613.03 1420.38 1615.17C1426.47 1611.73 1439.23 1582.98 1441.69 1574.48C1446.22 1558.88 1449.17 1534.76 1444.67 1519.07C1441.56 1492.27 1425.25 1462.46 1407.6 1444.71C1403.98 1441.08 1394.71 1434.86 1393.04 1430.18C1405.77 1430.34 1439.55 1460.3 1448.33 1470.53C1457.05 1480.7 1469.65 1498.53 1472.17 1512.61C1472.84 1516.35 1473.57 1519.96 1474.9 1523.47C1482.72 1544.26 1477.17 1580.83 1469.89 1601.15C1464.38 1616.48 1456.48 1630.55 1446.55 1642.68C1436.34 1655.32 1424.29 1665.97 1413.86 1678.4C1391.51 1705.06 1386.13 1736.08 1398.46 1770.25C1405.98 1791.08 1418.7 1806.44 1435.59 1817.85ZM695.522 419.769C718.688 411.691 733.466 410.234 757.415 416.025C767.021 417.932 774.476 420.627 783.768 423.988C767.633 406.197 743.68 396.173 721.184 400.621C708.306 404.864 703.783 407.286 695.522 419.769ZM1298.73 1770.8C1302.09 1769.68 1306.51 1763.78 1307.48 1759.68L1306.55 1758.51C1302.6 1759.88 1298.08 1766.07 1295.69 1769.78C1276.17 1795.29 1259.25 1822.12 1261.13 1857.92C1261.35 1862.14 1265.01 1882.76 1266.66 1886.27L1267.64 1885.99C1268.23 1881.33 1266.36 1870.12 1266.59 1862.17C1267.49 1830.36 1280.73 1795.14 1298.73 1770.8ZM464.593 1756.9C457.765 1791 443.451 1817.29 416.961 1836.09C409.564 1841.34 388.966 1849.72 385.275 1853.26C389.747 1853.82 394.086 1852.47 398.42 1851.32C414.508 1846.22 432.901 1838.75 446.289 1827.07C451.163 1822.82 455.263 1817.43 460.36 1813.53C464.054 1810.71 477.547 1788.26 478.349 1783.54C476.61 1777.12 469.5 1759.97 464.593 1756.9ZM526.382 928.588L526.286 929.756C526.044 932.499 525.726 934.961 525.049 937.608C515.502 974.91 528.87 1022.71 544.937 1055.24C554.207 1074.01 565.346 1091.79 573.889 1110.97C592.504 1152.79 598.759 1206.71 587.615 1252.11C582.158 1274.34 573.523 1295.86 561.204 1314.35C544.403 1339.56 522.539 1358.77 503.927 1381.95C466.365 1428.73 449.063 1488.95 477.727 1547.46C481.424 1555 491.467 1573.37 498.209 1576.96C499.026 1573.22 495.696 1566.87 494.308 1563.28C483.9 1525.07 484.884 1489.86 501.679 1454.1C540.858 1370.69 626.272 1361.81 637.539 1247.44C639.605 1226.45 639.659 1202.7 634.302 1182.32C631.374 1171.18 629.445 1155.61 623.56 1146.26C619.97 1140.55 619.526 1133.15 615.629 1127.56C609.065 1118.15 603.946 1107.28 597.569 1097.62C584.064 1077.18 568.264 1057.75 556.326 1036.11C551.351 1027.09 547.172 1016.41 543.375 1006.66C538.053 992.99 534.302 978.734 531.539 964.143C530.194 957.046 529.094 932.647 526.382 928.588ZM1181.32 1332.01C1183.08 1340.88 1183.8 1350.02 1185.51 1358.95C1189.5 1380.02 1196.91 1400.93 1206.41 1419.59C1214.03 1434.52 1222.78 1448.69 1232.52 1461.94C1262.1 1502.33 1293.88 1535.58 1286.69 1593.38C1284.2 1613.44 1278.13 1631.81 1268.59 1648.93C1241.49 1697.56 1197.11 1722.35 1181.08 1780.85C1175.45 1801.39 1175.01 1824.57 1179.21 1845.52C1180.72 1853.03 1184.53 1859.78 1185.77 1866.99C1186.58 1871.69 1189.46 1876.01 1191.65 1880.03C1201.69 1898.43 1213.81 1915.37 1230.12 1927.15C1230.81 1927.64 1231.5 1928.12 1232.21 1928.57C1228.79 1921.79 1225.1 1915.03 1222.29 1907.89C1210.12 1872.54 1208.87 1837.51 1222.36 1802.34C1238.03 1761.51 1270.48 1735.21 1297.72 1704.93C1302.2 1699.95 1307.3 1695.52 1311.47 1690.21C1314.51 1686.33 1316.45 1681.6 1318.93 1677.28C1340.27 1640.18 1352.07 1595.78 1337.38 1552.69C1320.55 1503.31 1279.97 1475.58 1246.75 1441.91C1236.74 1431.75 1227.12 1420 1218.8 1408.07C1206.15 1389.95 1194.4 1368.59 1187.66 1346.75C1186.04 1341.5 1184.94 1335.95 1181.32 1332.01ZM1098.78 593.68C1075.82 595.088 1056.07 608.668 1041.04 627.849C995.038 686.554 998.822 787.211 1052.04 838.885C1066.24 852.675 1093.31 866.667 1112.22 861.53C1134.9 860.351 1156.81 845.029 1171.6 826.06C1216.09 769.044 1212.01 669.101 1161.6 618.184C1144.21 600.617 1122.27 590.765 1098.78 593.68ZM738.521 593.876C729.602 594.397 714.837 599.687 707.297 605.151C638.677 654.871 632.417 776.801 692.81 837.838C712.956 858.199 731.967 863.876 757.791 862.922L759.435 862.323C765.818 860.056 768.579 860.389 775.881 857.162C798.47 847.177 816.994 826.87 828.459 802.929C846.269 765.621 850.014 721.735 838.843 681.249C830.34 649.502 812.476 619.726 786.239 603.866C771.633 595.004 754.956 591.512 738.521 593.876ZM484.963 867.196C457.349 900.174 441.094 950.755 441.972 996.163C442.397 1018.19 446.531 1038.88 454.164 1059.11C474.045 1111.78 509.406 1152.69 491.761 1215.01C488.709 1225.79 483.343 1240.58 476.526 1248.93C475.321 1250.4 475.133 1250.46 473.312 1250.75C472.721 1248.15 479.668 1223.67 480.932 1219.04C487.734 1194.16 475.565 1158.59 465.062 1137.06C447.477 1101.01 421.804 1072.49 412.905 1031.19C409.026 1012.56 407.712 993.364 409.012 974.281C409.368 969.541 413.183 949.714 411.632 947.227C407.482 952.103 404.446 959.419 402.31 965.7C398.126 978.007 393.788 989.748 391.201 1002.72C384.362 1037 389.365 1072.97 401.655 1104.82C419.482 1151.02 435.285 1185.46 417.989 1236.56C405.046 1274.79 373.439 1304.04 340.941 1320.11C339.275 1320.93 338.201 1321.59 336.359 1321.29C339.924 1312.49 348.983 1304.47 354.121 1296.45C356.994 1291.97 359.03 1286.22 361.108 1281.23C371.418 1256.46 373.967 1233.88 365.215 1207.56C358.626 1187.74 349.294 1177.96 338.27 1162.11C335.441 1158.05 331.856 1150.08 327.457 1147.92C327.209 1147.8 326.939 1147.75 326.679 1147.67C324.832 1152.62 329.412 1164.23 330.692 1169.7C338.866 1204.66 329.18 1243.68 311.453 1272.75C305.074 1283.21 297.471 1292.31 290.093 1301.83C282.608 1309.7 275.58 1318.29 268.333 1326.46C238.146 1360.49 209.014 1398.02 207.488 1448.97C206.699 1475.31 213.452 1499.15 224.599 1521.99C227.002 1526.91 229.612 1532.81 233.111 1536.86C234.53 1538.5 233.836 1538.1 235.557 1538.41C235.4 1532.75 233.075 1527.16 231.793 1521.71C230.414 1515.84 229.594 1509.64 229.035 1503.6C225.196 1462.21 239.3 1425.73 263.133 1395.29C265.51 1392.25 267.406 1388.66 269.948 1385.82C274.382 1380.85 293.661 1363.42 299.078 1362.84C298.749 1364.55 284.127 1385.02 281.918 1389.1C261.55 1426.7 252.912 1471.71 266.464 1514.2C268.392 1520.24 270.341 1527.91 273.599 1533.21C274.219 1534.22 274.906 1534.91 275.73 1535.69C277.437 1533.82 279.022 1503.41 282.394 1495.92C285.413 1489.22 285.773 1481.23 288.222 1474.25C296.186 1451.55 318.142 1419.2 333.356 1402.82C357.581 1376.73 386.765 1357.39 416.186 1339.91C435.138 1328.66 454.946 1319.5 473.522 1307.35C508.357 1284.58 540.306 1247.58 545.646 1200.59C547.408 1185.07 547.126 1165.1 542.663 1150.17C536.545 1129.7 525.503 1111.52 514.932 1093.81C491.277 1054.18 470.238 1012.58 468.962 963.398C468.29 937.541 471.117 911.689 479.119 887.336C480.638 882.715 486.279 871.584 484.963 867.196Z" fill="black"/>
<path d="M818.188 938.404C821.877 937.839 829.422 938.016 832.361 940.616C843.472 950.444 850.211 962.572 864.113 973.032C905.184 1003.93 962.575 1001.13 1001.84 967.785C1010.82 960.16 1022.81 941.358 1032.48 939.452C1038.48 938.27 1045.05 939.854 1049.85 944.177C1052.98 946.997 1055.23 950.862 1055.65 955.437C1056.58 965.586 1049.31 973.564 1044.08 980.745C1033.97 991.862 1023.33 1001.18 1011.07 1009.13C974.175 1033.09 926.832 1039.97 885.883 1026.88C859.671 1018.5 835.35 1004.26 816.311 982.04C812.282 977.337 807.88 972.589 805.191 966.714C802.89 961.683 802.219 955.151 803.974 949.761C805.943 943.71 813.36 940.763 818.188 938.404Z" fill="black"/>
<path d="M621.883 335.497L622.655 336.806C620.681 340.024 619.004 342.862 616.671 345.802C583.428 387.691 565.706 451.078 560.476 505.691C549.247 622.954 497.662 700.176 407.897 756.38L406.819 754.982C417.73 739.139 432.449 724.948 443.912 708.322C472.926 666.244 498.897 613.034 509.017 560.54C526.469 470.014 544.45 384.608 621.883 335.497Z" fill="black"/>
<path d="M1216.2 369.505C1226.15 373.607 1237.97 386.789 1245.79 394.521C1284.39 432.971 1306 491.833 1319.75 546.783C1329.52 587.302 1338.29 627.658 1357.15 664.302C1361.42 672.588 1360.56 676.491 1367.44 685.173C1370.64 689.22 1375.28 702.486 1378.77 707.738C1391.93 727.016 1406.31 747.253 1421.76 764.163C1442.05 786.371 1473.84 809.297 1490.78 834.305C1475.16 826.694 1457.11 814.252 1441.1 805.8C1426.06 797.865 1402.71 780.534 1389.65 769.454C1338.66 726.225 1303.57 661.859 1289.17 591.825C1286.07 576.978 1284.41 556.139 1282.15 541.041C1270.19 461.173 1258.19 431.045 1216.2 369.505Z" fill="black"/>
<path d="M292.347 1810.41C332.484 1797.66 361.948 1764.81 360.324 1715.19C360.221 1712.04 358.33 1693.51 358.602 1692.56L360.017 1692.32C369.037 1695.92 390.857 1723.92 395.193 1733.63C396.696 1731.56 396.242 1726.58 395.983 1724.02C391.951 1684.17 353.234 1651.91 336.059 1618.16C326.597 1599.56 320.661 1579.31 319.682 1557.8C317.71 1514.48 333.623 1475.42 358.804 1443.85C398.176 1394.49 441.801 1379.76 490.541 1348.35C493.45 1346.48 517.093 1329.02 517.338 1329C517.697 1333.62 481.383 1384.9 476.814 1392.89C452.016 1436.62 435.188 1479.49 444.008 1531.99C454.804 1596.23 488.832 1624.05 533.821 1658.43C567.268 1685.6 607.655 1703.9 635.9 1738.97C669.256 1780.38 678.791 1843.73 653.936 1893.57C650.511 1900.44 643.685 1905.77 640.998 1913.36C639.686 1917.07 634.885 1919.73 631.697 1920.8C632.517 1919.66 633.674 1917.02 635.038 1914.73C647.218 1894.34 652.773 1861.23 650.612 1838.06C648.178 1811.97 636.978 1777.19 619.957 1760.98C614.313 1754.15 608.95 1748.3 602.088 1743.03C607.362 1752.75 611.647 1761.33 615.571 1771.88C617.158 1773.12 618.56 1780.94 619.144 1783.34C625.187 1807.17 624.767 1832.51 617.94 1856.07C607.122 1892.65 582.617 1923.46 551.543 1941.7C547.79 1943.9 534.402 1951.38 530.838 1949.99C531.654 1946.65 537.071 1939.15 539.17 1935.06C549.821 1914.56 556.26 1889.57 555.86 1865.72C555.339 1834.59 542.011 1792.1 521.213 1770.87C522.913 1765.8 521.729 1767.14 525.33 1764.82C548.359 1780.13 572.003 1813.87 578.383 1843.49C581.275 1856.91 582.021 1867.9 582.28 1881.64L583.537 1882.01C613.904 1813.13 576.74 1746.38 522.549 1712.16C517.319 1708.86 512.324 1703.38 506.218 1701.01C499.335 1698.53 493.767 1692.06 488.246 1689.12C469.323 1679.05 457.237 1668.54 441.677 1653.34C417.144 1629.37 401.065 1604.31 390.653 1569.28C382.701 1542.99 381.108 1514.76 386.04 1487.53C387.051 1481.76 391.167 1468.09 391.288 1465.24C385.577 1467.02 378.956 1482.8 375.498 1488.78C349.535 1533.69 351.363 1598.83 379.089 1642.05C381.247 1645.41 382.715 1651.48 385.288 1654.59C396.077 1667.63 407.377 1680.93 417.932 1694.14C429.596 1708.75 432.869 1735.27 429.971 1754.65C423.485 1798.02 395.672 1825.96 358.637 1836.29C352.154 1835.63 335.651 1838.23 331.926 1837.02C334.711 1835.53 335.657 1834.8 338.127 1832.89C339.085 1832.14 338.464 1832.55 339.658 1831.98C358.963 1822.67 368.068 1814.84 380.678 1796.66C382.778 1792.78 388.193 1783.91 388.455 1779.99C384.252 1780.68 379.879 1786.28 376.685 1789.79C372.288 1792.21 364.342 1798.78 358.689 1801.9C334.055 1815.52 318.114 1815.47 292.347 1810.41Z" fill="black"/>
<path d="M745.325 656.533C823.493 649.706 833.395 805.917 758.787 821.108C744.711 823.975 732.605 818.946 721.364 809.881C695.15 784.797 690.044 742.791 699.512 707.051C700.898 701.821 702.432 696.617 703.95 691.435C706.845 704.296 708.468 715.839 720.981 721.931C726.835 724.757 733.45 724.764 739.309 721.952C746.333 718.551 751.77 711.957 754.292 703.784C757.008 695.088 755.705 687.317 752.171 679.178C747.55 668.536 740.172 667.83 730.952 664.21L730.652 662.582C733.297 659.318 741.581 657.282 745.325 656.533Z" fill="black"/>
<path d="M1100.1 656.421C1112.32 656.363 1124.41 662.11 1133.69 671.018C1148.91 685.628 1156.64 708.271 1158.19 730.39C1159.9 754.777 1153.99 781.909 1139.57 800.594C1130.44 812.656 1117.39 820.001 1103.39 820.946C1088 821.923 1075.79 815.49 1064.56 804.285C1058.05 797.196 1052.74 786.648 1049.35 777.206C1039.35 749.317 1042.5 719.623 1052.46 692.438C1053.64 701.7 1054.96 709.078 1060.86 716.184C1065.44 721.693 1072.12 725.348 1078.87 725.202C1085.66 725.056 1091.69 720.743 1096.05 715.072C1101.12 708.485 1104.14 700.285 1103.36 691.448C1102.46 681.184 1097.56 671.939 1088.98 667.969C1085.92 666.555 1082.18 666.169 1079.66 663.745C1079.84 663.474 1079.99 663.179 1080.19 662.932C1084.81 657.319 1093.73 656.815 1100.1 656.421Z" fill="black"/>
<path d="M1295.69 1769.78C1296.73 1770.08 1297.82 1770.28 1298.73 1770.8C1280.73 1795.14 1267.49 1830.36 1266.59 1862.17C1266.36 1870.12 1268.23 1881.33 1267.64 1885.99L1266.66 1886.27C1265.01 1882.76 1261.35 1862.14 1261.13 1857.92C1259.25 1822.12 1276.17 1795.29 1295.69 1769.78Z" fill="black"/>
<path d="M1223.21 1508.44C1226.8 1520.64 1227.12 1544.17 1224.4 1556.05L1223.46 1555.98C1221.26 1550.67 1219.72 1540.01 1218.43 1533.59L1221.79 1534.8C1224.04 1531.29 1222.76 1515.41 1223.21 1508.44Z" fill="black"/>
<path d="M602.808 1527.18C603.243 1523.14 606.689 1510.91 608.912 1508.03C610.1 1512.57 609.357 1537.48 610.096 1545.78C603.844 1541.49 608.072 1538.17 605.448 1528.69L602.808 1527.18Z" fill="black"/>
<path d="M602.088 1743.03C608.95 1748.3 614.313 1754.15 619.957 1760.98C614.336 1764.55 615.201 1763.93 615.571 1771.88C611.647 1761.33 607.362 1752.75 602.088 1743.03Z" fill="black"/>
<path d="M358.637 1836.29C352.753 1839.05 329.824 1840.92 323.578 1838.56L323.917 1837.42C328.376 1834.83 333.215 1834.03 338.127 1832.89C335.657 1834.8 334.711 1835.53 331.926 1837.02C335.651 1838.23 352.154 1835.63 358.637 1836.29Z" fill="black"/>
<path d="M521.213 1770.87C517.564 1764.42 510.505 1759.87 508.424 1754.34L509.072 1753.09C511.004 1753.32 522.268 1762.63 525.33 1764.82C521.729 1767.14 522.913 1765.8 521.213 1770.87Z" fill="black"/>
<path d="M884.763 290.123C888.318 294.276 894.228 300.338 896.945 304.722L896.398 306.066C892.191 305.607 885.019 299.89 880.8 297.6C882.576 297.276 883.643 297.013 885.381 296.561C885.248 294.245 885.028 292.413 884.763 290.123Z" fill="black"/>
<path d="M376.685 1789.79C379.879 1786.28 384.252 1780.68 388.456 1779.99C388.193 1783.91 382.778 1792.78 380.678 1796.66C380.109 1792 379.957 1792.17 376.685 1789.79Z" fill="black"/>
<path d="M590.854 278.136C595.555 274.195 604.186 269.07 609.602 266.008C604.509 272.55 599.555 277.297 593.69 282.952C593.574 281.603 593.469 280.253 593.377 278.902L590.854 278.136Z" fill="black"/>
<path d="M1295.69 1769.78C1298.08 1766.07 1302.6 1759.88 1306.55 1758.51L1307.48 1759.68C1306.51 1763.78 1302.09 1769.68 1298.73 1770.8C1297.82 1770.28 1296.73 1770.08 1295.69 1769.78Z" fill="black"/>
<path d="M690.015 1418.37C692.26 1414.78 693.725 1413.11 696.534 1410.02L698.838 1410.98L700.461 1408.15C698.696 1413.72 695.412 1418.31 691.74 1422.5C691.446 1421.52 690.459 1419.4 690.015 1418.37Z" fill="black"/>
</svg>
